<?xml version="1.0" encoding="UTF-8"?>
<svg id="Calque_1" xmlns="http://www.w3.org/2000/svg" version="1.1" viewBox="0 0 171.7 171.7">
  <!-- Generator: Adobe Illustrator 29.3.1, SVG Export Plug-In . SVG Version: 2.1.0 Build 151)  -->
  <defs>
    <style>
      .st0 {
        fill: #4d4d4f;
      }

      .st1 {
        fill: #fff;
      }
    </style>
  </defs>
  <rect class="st0" x="0" y="0" width="171.8" height="171.8" rx="12.2" ry="12.2"/>
  <g>
    <path class="st1" d="M44.3,10.5L15.9,85.2h6.5l8-21.4h36.7l8.1,21.4h6.7L53.4,10.5h-9.1ZM32.4,58.4L48.8,14.6l16.3,43.9h-32.7Z"/>
    <path class="st1" d="M44.3,87.7l-28.4,74.7h6.5l8-21.4h36.7l8.1,21.4h6.7l-28.6-74.7h-9.1ZM32.4,135.6l16.3-43.9,16.3,43.9h-32.7Z"/>
    <path class="st1" d="M120.5,81.3c-17,0-29-13.1-29-33.5s12-33.5,29-33.5,25.5,7.8,28.1,21.9h7.2c-2.9-16.7-17.9-27-35.3-27s-36.2,15.5-36.2,38.6,15.1,38.6,36.2,38.6,32.1-10.4,35.3-27.5h-7.2c-2.6,14.6-14,22.3-28.1,22.3Z"/>
  </g>
</svg>